solid flat_mesh_a
   facet normal -1.000000e+00 -0.000000e+00 -0.000000e+00
      outer loop
         vertex 5.500000e+02 2.540000e+01 4.020000e+02
         vertex 5.500000e+02 2.540000e+01 2.000004e+00
         vertex 5.500000e+02 0.000000e+00 4.020000e+02
      endloop
   endfacet
   facet normal -1.000000e+00 0.000000e+00 0.000000e+00
      outer loop
         vertex 5.500000e+02 0.000000e+00 4.020000e+02
         vertex 5.500000e+02 2.540000e+01 2.000004e+00
         vertex 5.500000e+02 0.000000e+00 2.000004e+00
      endloop
   endfacet
   facet normal 0.000000e+00 0.000000e+00 1.000000e+00
      outer loop
         vertex 1.150000e+03 2.540000e+01 4.020000e+02
         vertex 5.500000e+02 2.540000e+01 4.020000e+02
         vertex 1.150000e+03 0.000000e+00 4.020000e+02
      endloop
   endfacet
   facet normal 0.000000e+00 0.000000e+00 1.000000e+00
      outer loop
         vertex 1.150000e+03 0.000000e+00 4.020000e+02
         vertex 5.500000e+02 2.540000e+01 4.020000e+02
         vertex 5.500000e+02 0.000000e+00 4.020000e+02
      endloop
   endfacet
   facet normal 1.000000e+00 0.000000e+00 -0.000000e+00
      outer loop
         vertex 1.150000e+03 2.540000e+01 2.000004e+00
         vertex 1.150000e+03 2.540000e+01 4.020000e+02
         vertex 1.150000e+03 0.000000e+00 2.000004e+00
      endloop
   endfacet
   facet normal 1.000000e+00 0.000000e+00 0.000000e+00
      outer loop
         vertex 1.150000e+03 0.000000e+00 2.000004e+00
         vertex 1.150000e+03 2.540000e+01 4.020000e+02
         vertex 1.150000e+03 0.000000e+00 4.020000e+02
      endloop
   endfacet
   facet normal 0.000000e+00 0.000000e+00 -1.000000e+00
      outer loop
         vertex 5.500000e+02 2.540000e+01 2.000004e+00
         vertex 1.150000e+03 2.540000e+01 2.000004e+00
         vertex 5.500000e+02 0.000000e+00 2.000004e+00
      endloop
   endfacet
   facet normal 0.000000e+00 0.000000e+00 -1.000000e+00
      outer loop
         vertex 5.500000e+02 0.000000e+00 2.000004e+00
         vertex 1.150000e+03 2.540000e+01 2.000004e+00
         vertex 1.150000e+03 0.000000e+00 2.000004e+00
      endloop
   endfacet
   facet normal 0.000000e+00 1.000000e+00 0.000000e+00
      outer loop
         vertex 1.150000e+03 2.540000e+01 4.020000e+02
         vertex 1.150000e+03 2.540000e+01 2.000004e+00
         vertex 5.500000e+02 2.540000e+01 4.020000e+02
      endloop
   endfacet
   facet normal 0.000000e+00 1.000000e+00 0.000000e+00
      outer loop
         vertex 5.500000e+02 2.540000e+01 4.020000e+02
         vertex 1.150000e+03 2.540000e+01 2.000004e+00
         vertex 5.500000e+02 2.540000e+01 2.000004e+00
      endloop
   endfacet
   facet normal 0.000000e+00 -1.000000e+00 0.000000e+00
      outer loop
         vertex 1.150000e+03 0.000000e+00 2.000004e+00
         vertex 1.150000e+03 0.000000e+00 4.020000e+02
         vertex 5.500000e+02 0.000000e+00 2.000004e+00
      endloop
   endfacet
   facet normal 0.000000e+00 -1.000000e+00 0.000000e+00
      outer loop
         vertex 5.500000e+02 0.000000e+00 2.000004e+00
         vertex 1.150000e+03 0.000000e+00 4.020000e+02
         vertex 5.500000e+02 0.000000e+00 4.020000e+02
      endloop
   endfacet
endsolid