solid cyl_mesh_a
   facet normal -1.980384e-18 3.341559e-02 -9.994415e-01
      outer loop
         vertex 6.500000e+02 2.691982e+01 3.058296e-01
         vertex 6.500000e+02 2.525000e+01 2.500005e-01
         vertex 5.500000e+02 2.525000e+01 2.500005e-01
      endloop
   endfacet
   facet normal 2.046116e-18 -3.341559e-02 -9.994415e-01
      outer loop
         vertex 5.500000e+02 2.525000e+01 2.500005e-01
         vertex 6.500000e+02 2.525000e+01 2.500005e-01
         vertex 5.500000e+02 2.358019e+01 3.058296e-01
      endloop
   endfacet
   facet normal 0.000000e+00 -3.341559e-02 -9.994415e-01
      outer loop
         vertex 6.500000e+02 2.525000e+01 2.500005e-01
         vertex 6.500000e+02 2.358019e+01 3.058296e-01
         vertex 5.500000e+02 2.358019e+01 3.058296e-01
      endloop
   endfacet
   facet normal 0.000000e+00 -1.332870e-01 -9.910775e-01
      outer loop
         vertex 5.500000e+02 2.358019e+01 3.058296e-01
         vertex 6.500000e+02 2.358019e+01 3.058296e-01
         vertex 6.500000e+02 2.027035e+01 7.509589e-01
      endloop
   endfacet
   facet normal 0.000000e+00 -1.332870e-01 -9.910775e-01
      outer loop
         vertex 5.500000e+02 2.358019e+01 3.058296e-01
         vertex 6.500000e+02 2.027035e+01 7.509589e-01
         vertex 5.500000e+02 2.027035e+01 7.509589e-01
      endloop
   endfacet
   facet normal 0.000000e+00 -2.641952e-01 -9.644692e-01
      outer loop
         vertex 5.500000e+02 2.027035e+01 7.509589e-01
         vertex 6.500000e+02 2.027035e+01 7.509589e-01
         vertex 6.500000e+02 1.704938e+01 1.633273e+00
      endloop
   endfacet
   facet normal 0.000000e+00 -2.641952e-01 -9.644692e-01
      outer loop
         vertex 5.500000e+02 2.027035e+01 7.509589e-01
         vertex 6.500000e+02 1.704938e+01 1.633273e+00
         vertex 5.500000e+02 1.704938e+01 1.633273e+00
      endloop
   endfacet
   facet normal 0.000000e+00 -3.903893e-01 -9.206499e-01
      outer loop
         vertex 5.500000e+02 1.704938e+01 1.633273e+00
         vertex 6.500000e+02 1.704938e+01 1.633273e+00
         vertex 6.500000e+02 1.397475e+01 2.937030e+00
      endloop
   endfacet
   facet normal 0.000000e+00 -3.903893e-01 -9.206499e-01
      outer loop
         vertex 5.500000e+02 1.704938e+01 1.633273e+00
         vertex 6.500000e+02 1.397475e+01 2.937030e+00
         vertex 5.500000e+02 1.397475e+01 2.937030e+00
      endloop
   endfacet
   facet normal 0.000000e+00 -5.096167e-01 -8.604015e-01
      outer loop
         vertex 5.500000e+02 1.397475e+01 2.937030e+00
         vertex 6.500000e+02 1.397475e+01 2.937030e+00
         vertex 6.500000e+02 1.110132e+01 4.638962e+00
      endloop
   endfacet
   facet normal 0.000000e+00 -5.096167e-01 -8.604015e-01
      outer loop
         vertex 5.500000e+02 1.397475e+01 2.937030e+00
         vertex 6.500000e+02 1.110132e+01 4.638962e+00
         vertex 5.500000e+02 1.110132e+01 4.638962e+00
      endloop
   endfacet
   facet normal 0.000000e+00 -6.197499e-01 -7.847994e-01
      outer loop
         vertex 5.500000e+02 1.110132e+01 4.638962e+00
         vertex 6.500000e+02 1.110132e+01 4.638962e+00
         vertex 6.500000e+02 8.480383e+00 6.708698e+00
      endloop
   endfacet
   facet normal 0.000000e+00 -6.197499e-01 -7.847994e-01
      outer loop
         vertex 5.500000e+02 1.110132e+01 4.638962e+00
         vertex 6.500000e+02 8.480383e+00 6.708698e+00
         vertex 5.500000e+02 8.480383e+00 6.708698e+00
      endloop
   endfacet
   facet normal 0.000000e+00 -7.188238e-01 -6.951923e-01
      outer loop
         vertex 5.500000e+02 8.480383e+00 6.708698e+00
         vertex 6.500000e+02 8.480383e+00 6.708698e+00
         vertex 6.500000e+02 6.158696e+00 9.109305e+00
      endloop
   endfacet
   facet normal 0.000000e+00 -7.188238e-01 -6.951923e-01
      outer loop
         vertex 5.500000e+02 8.480383e+00 6.708698e+00
         vertex 6.500000e+02 6.158696e+00 9.109305e+00
         vertex 5.500000e+02 6.158696e+00 9.109305e+00
      endloop
   endfacet
   facet normal 0.000000e+00 -8.050698e-01 -5.931801e-01
      outer loop
         vertex 5.500000e+02 6.158696e+00 9.109305e+00
         vertex 6.500000e+02 6.158696e+00 9.109305e+00
         vertex 6.500000e+02 4.177693e+00 1.179794e+01
      endloop
   endfacet
   facet normal 0.000000e+00 -8.050698e-01 -5.931801e-01
      outer loop
         vertex 5.500000e+02 6.158696e+00 9.109305e+00
         vertex 6.500000e+02 4.177693e+00 1.179794e+01
         vertex 5.500000e+02 4.177693e+00 1.179794e+01
      endloop
   endfacet
   facet normal 0.000000e+00 -8.769501e-01 -4.805815e-01
      outer loop
         vertex 5.500000e+02 4.177693e+00 1.179794e+01
         vertex 6.500000e+02 4.177693e+00 1.179794e+01
         vertex 6.500000e+02 2.572728e+00 1.472663e+01
      endloop
   endfacet
   facet normal 0.000000e+00 -8.769501e-01 -4.805815e-01
      outer loop
         vertex 5.500000e+02 4.177693e+00 1.179794e+01
         vertex 6.500000e+02 2.572728e+00 1.472663e+01
         vertex 5.500000e+02 2.572728e+00 1.472663e+01
      endloop
   endfacet
   facet normal 0.000000e+00 -9.331805e-01 -3.594080e-01
      outer loop
         vertex 5.500000e+02 2.572728e+00 1.472663e+01
         vertex 6.500000e+02 2.572728e+00 1.472663e+01
         vertex 6.500000e+02 1.372438e+00 1.784311e+01
      endloop
   endfacet
   facet normal 0.000000e+00 -9.331805e-01 -3.594080e-01
      outer loop
         vertex 5.500000e+02 2.572728e+00 1.472663e+01
         vertex 6.500000e+02 1.372438e+00 1.784311e+01
         vertex 5.500000e+02 1.372438e+00 1.784311e+01
      endloop
   endfacet
   facet normal 0.000000e+00 -9.727587e-01 -2.318200e-01
      outer loop
         vertex 5.500000e+02 1.372438e+00 1.784311e+01
         vertex 6.500000e+02 1.372438e+00 1.784311e+01
         vertex 6.500000e+02 5.982444e-01 2.109177e+01
      endloop
   endfacet
   facet normal 0.000000e+00 -9.727587e-01 -2.318200e-01
      outer loop
         vertex 5.500000e+02 1.372438e+00 1.784311e+01
         vertex 6.500000e+02 5.982444e-01 2.109177e+01
         vertex 5.500000e+02 5.982444e-01 2.109177e+01
      endloop
   endfacet
   facet normal 0.000000e+00 -9.949778e-01 -1.000959e-01
      outer loop
         vertex 5.500000e+02 5.982444e-01 2.109177e+01
         vertex 6.500000e+02 5.982444e-01 2.109177e+01
         vertex 6.500000e+02 2.639610e-01 2.441463e+01
      endloop
   endfacet
   facet normal 0.000000e+00 -9.949778e-01 -1.000959e-01
      outer loop
         vertex 5.500000e+02 5.982444e-01 2.109177e+01
         vertex 6.500000e+02 2.639610e-01 2.441463e+01
         vertex 5.500000e+02 2.639610e-01 2.441463e+01
      endloop
   endfacet
   facet normal 0.000000e+00 -9.994416e-01 3.341530e-02
      outer loop
         vertex 5.500000e+02 2.639610e-01 2.441463e+01
         vertex 6.500000e+02 2.639610e-01 2.441463e+01
         vertex 6.500000e+02 3.755558e-01 2.775239e+01
      endloop
   endfacet
   facet normal 0.000000e+00 -9.994416e-01 3.341530e-02
      outer loop
         vertex 5.500000e+02 2.639610e-01 2.441463e+01
         vertex 6.500000e+02 3.755558e-01 2.775239e+01
         vertex 5.500000e+02 3.755558e-01 2.775239e+01
      endloop
   endfacet
   facet normal 0.000000e+00 -9.860703e-01 1.663291e-01
      outer loop
         vertex 5.500000e+02 3.755558e-01 2.775239e+01
         vertex 6.500000e+02 3.755558e-01 2.775239e+01
         vertex 6.500000e+02 9.310339e-01 3.104550e+01
      endloop
   endfacet
   facet normal 0.000000e+00 -9.860703e-01 1.663291e-01
      outer loop
         vertex 5.500000e+02 3.755558e-01 2.775239e+01
         vertex 6.500000e+02 9.310339e-01 3.104550e+01
         vertex 5.500000e+02 9.310339e-01 3.104550e+01
      endloop
   endfacet
   facet normal 0.000000e+00 -9.551024e-01 2.962758e-01
      outer loop
         vertex 5.500000e+02 9.310339e-01 3.104550e+01
         vertex 6.500000e+02 9.310339e-01 3.104550e+01
         vertex 6.500000e+02 1.920486e+00 3.423520e+01
      endloop
   endfacet
   facet normal 0.000000e+00 -9.551024e-01 2.962758e-01
      outer loop
         vertex 5.500000e+02 9.310339e-01 3.104550e+01
         vertex 6.500000e+02 1.920486e+00 3.423520e+01
         vertex 5.500000e+02 1.920486e+00 3.423520e+01
      endloop
   endfacet
   facet normal 0.000000e+00 -9.070910e-01 4.209346e-01
      outer loop
         vertex 5.500000e+02 1.920486e+00 3.423520e+01
         vertex 6.500000e+02 1.920486e+00 3.423520e+01
         vertex 6.500000e+02 3.326252e+00 3.726454e+01
      endloop
   endfacet
   facet normal 0.000000e+00 -9.070910e-01 4.209346e-01
      outer loop
         vertex 5.500000e+02 1.920486e+00 3.423520e+01
         vertex 6.500000e+02 3.326252e+00 3.726454e+01
         vertex 5.500000e+02 3.326252e+00 3.726454e+01
      endloop
   endfacet
   facet normal 0.000000e+00 -8.428922e-01 5.380825e-01
      outer loop
         vertex 5.500000e+02 3.326252e+00 3.726454e+01
         vertex 6.500000e+02 3.326252e+00 3.726454e+01
         vertex 6.500000e+02 5.123250e+00 4.007949e+01
      endloop
   endfacet
   facet normal 0.000000e+00 -8.428922e-01 5.380825e-01
      outer loop
         vertex 5.500000e+02 3.326252e+00 3.726454e+01
         vertex 6.500000e+02 5.123250e+00 4.007949e+01
         vertex 5.500000e+02 5.123250e+00 4.007949e+01
      endloop
   endfacet
   facet normal 0.000000e+00 -7.636522e-01 6.456278e-01
      outer loop
         vertex 5.500000e+02 5.123250e+00 4.007949e+01
         vertex 6.500000e+02 5.123250e+00 4.007949e+01
         vertex 6.500000e+02 7.279409e+00 4.262981e+01
      endloop
   endfacet
   facet normal 0.000000e+00 -7.636522e-01 6.456278e-01
      outer loop
         vertex 5.500000e+02 5.123250e+00 4.007949e+01
         vertex 6.500000e+02 7.279409e+00 4.262981e+01
         vertex 5.500000e+02 7.279409e+00 4.262981e+01
      endloop
   endfacet
   facet normal 0.000000e+00 -6.707847e-01 7.416522e-01
      outer loop
         vertex 5.500000e+02 7.279409e+00 4.262981e+01
         vertex 6.500000e+02 7.279409e+00 4.262981e+01
         vertex 6.500000e+02 9.756254e+00 4.486999e+01
      endloop
   endfacet
   facet normal 0.000000e+00 -6.707847e-01 7.416522e-01
      outer loop
         vertex 5.500000e+02 7.279409e+00 4.262981e+01
         vertex 6.500000e+02 9.756254e+00 4.486999e+01
         vertex 5.500000e+02 9.756254e+00 4.486999e+01
      endloop
   endfacet
   facet normal 0.000000e+00 -5.659474e-01 8.244413e-01
      outer loop
         vertex 5.500000e+02 9.756254e+00 4.486999e+01
         vertex 6.500000e+02 9.756254e+00 4.486999e+01
         vertex 6.500000e+02 1.250958e+01 4.676004e+01
      endloop
   endfacet
   facet normal 0.000000e+00 -5.659474e-01 8.244413e-01
      outer loop
         vertex 5.500000e+02 9.756254e+00 4.486999e+01
         vertex 6.500000e+02 1.250958e+01 4.676004e+01
         vertex 5.500000e+02 1.250958e+01 4.676004e+01
      endloop
   endfacet
   facet normal 0.000000e+00 -4.510100e-01 8.925189e-01
      outer loop
         vertex 5.500000e+02 1.250958e+01 4.676004e+01
         vertex 6.500000e+02 1.250958e+01 4.676004e+01
         vertex 6.500000e+02 1.549027e+01 4.826625e+01
      endloop
   endfacet
   facet normal 0.000000e+00 -4.510100e-01 8.925189e-01
      outer loop
         vertex 5.500000e+02 1.250958e+01 4.676004e+01
         vertex 6.500000e+02 1.549027e+01 4.826625e+01
         vertex 5.500000e+02 1.549027e+01 4.826625e+01
      endloop
   endfacet
   facet normal 0.000000e+00 -3.280246e-01 9.446692e-01
      outer loop
         vertex 5.500000e+02 1.549027e+01 4.826625e+01
         vertex 6.500000e+02 1.549027e+01 4.826625e+01
         vertex 6.500000e+02 1.864512e+01 4.936173e+01
      endloop
   endfacet
   facet normal 0.000000e+00 -3.280246e-01 9.446692e-01
      outer loop
         vertex 5.500000e+02 1.549027e+01 4.826625e+01
         vertex 6.500000e+02 1.864512e+01 4.936173e+01
         vertex 5.500000e+02 1.864512e+01 4.936173e+01
      endloop
   endfacet
   facet normal 0.000000e+00 -1.991861e-01 9.799617e-01
      outer loop
         vertex 5.500000e+02 1.864512e+01 4.936173e+01
         vertex 6.500000e+02 1.864512e+01 4.936173e+01
         vertex 6.500000e+02 2.191783e+01 5.002694e+01
      endloop
   endfacet
   facet normal 0.000000e+00 -1.991861e-01 9.799617e-01
      outer loop
         vertex 5.500000e+02 1.864512e+01 4.936173e+01
         vertex 6.500000e+02 2.191783e+01 5.002694e+01
         vertex 5.500000e+02 2.191783e+01 5.002694e+01
      endloop
   endfacet
   facet normal 0.000000e+00 -6.679267e-02 9.977669e-01
      outer loop
         vertex 5.500000e+02 2.191783e+01 5.002694e+01
         vertex 6.500000e+02 2.191783e+01 5.002694e+01
         vertex 6.500000e+02 2.525000e+01 5.025000e+01
      endloop
   endfacet
   facet normal 0.000000e+00 -6.679267e-02 9.977669e-01
      outer loop
         vertex 5.500000e+02 2.191783e+01 5.002694e+01
         vertex 6.500000e+02 2.525000e+01 5.025000e+01
         vertex 5.500000e+02 2.525000e+01 5.025000e+01
      endloop
   endfacet
   facet normal -0.000000e+00 6.679267e-02 9.977669e-01
      outer loop
         vertex 5.500000e+02 2.525000e+01 5.025000e+01
         vertex 6.500000e+02 2.525000e+01 5.025000e+01
         vertex 6.500000e+02 2.858217e+01 5.002694e+01
      endloop
   endfacet
   facet normal 0.000000e+00 6.679267e-02 9.977669e-01
      outer loop
         vertex 5.500000e+02 2.525000e+01 5.025000e+01
         vertex 6.500000e+02 2.858217e+01 5.002694e+01
         vertex 5.500000e+02 2.858217e+01 5.002694e+01
      endloop
   endfacet
   facet normal -0.000000e+00 1.991861e-01 9.799617e-01
      outer loop
         vertex 5.500000e+02 2.858217e+01 5.002694e+01
         vertex 6.500000e+02 2.858217e+01 5.002694e+01
         vertex 6.500000e+02 3.185489e+01 4.936173e+01
      endloop
   endfacet
   facet normal 0.000000e+00 1.991861e-01 9.799617e-01
      outer loop
         vertex 5.500000e+02 2.858217e+01 5.002694e+01
         vertex 6.500000e+02 3.185489e+01 4.936173e+01
         vertex 5.500000e+02 3.185489e+01 4.936173e+01
      endloop
   endfacet
   facet normal -0.000000e+00 3.280246e-01 9.446692e-01
      outer loop
         vertex 5.500000e+02 3.185489e+01 4.936173e+01
         vertex 6.500000e+02 3.185489e+01 4.936173e+01
         vertex 6.500000e+02 3.500973e+01 4.826625e+01
      endloop
   endfacet
   facet normal 0.000000e+00 3.280246e-01 9.446692e-01
      outer loop
         vertex 5.500000e+02 3.185489e+01 4.936173e+01
         vertex 6.500000e+02 3.500973e+01 4.826625e+01
         vertex 5.500000e+02 3.500973e+01 4.826625e+01
      endloop
   endfacet
   facet normal -0.000000e+00 4.510100e-01 8.925189e-01
      outer loop
         vertex 5.500000e+02 3.500973e+01 4.826625e+01
         vertex 6.500000e+02 3.500973e+01 4.826625e+01
         vertex 6.500000e+02 3.799042e+01 4.676004e+01
      endloop
   endfacet
   facet normal 0.000000e+00 4.510100e-01 8.925189e-01
      outer loop
         vertex 5.500000e+02 3.500973e+01 4.826625e+01
         vertex 6.500000e+02 3.799042e+01 4.676004e+01
         vertex 5.500000e+02 3.799042e+01 4.676004e+01
      endloop
   endfacet
   facet normal -0.000000e+00 5.659474e-01 8.244413e-01
      outer loop
         vertex 5.500000e+02 3.799042e+01 4.676004e+01
         vertex 6.500000e+02 3.799042e+01 4.676004e+01
         vertex 6.500000e+02 4.074375e+01 4.486999e+01
      endloop
   endfacet
   facet normal 0.000000e+00 5.659474e-01 8.244413e-01
      outer loop
         vertex 5.500000e+02 3.799042e+01 4.676004e+01
         vertex 6.500000e+02 4.074375e+01 4.486999e+01
         vertex 5.500000e+02 4.074375e+01 4.486999e+01
      endloop
   endfacet
   facet normal -0.000000e+00 6.707847e-01 7.416522e-01
      outer loop
         vertex 5.500000e+02 4.074375e+01 4.486999e+01
         vertex 6.500000e+02 4.074375e+01 4.486999e+01
         vertex 6.500000e+02 4.322059e+01 4.262981e+01
      endloop
   endfacet
   facet normal 0.000000e+00 6.707847e-01 7.416522e-01
      outer loop
         vertex 5.500000e+02 4.074375e+01 4.486999e+01
         vertex 6.500000e+02 4.322059e+01 4.262981e+01
         vertex 5.500000e+02 4.322059e+01 4.262981e+01
      endloop
   endfacet
   facet normal -0.000000e+00 7.636522e-01 6.456278e-01
      outer loop
         vertex 5.500000e+02 4.322059e+01 4.262981e+01
         vertex 6.500000e+02 4.322059e+01 4.262981e+01
         vertex 6.500000e+02 4.537675e+01 4.007949e+01
      endloop
   endfacet
   facet normal 0.000000e+00 7.636522e-01 6.456278e-01
      outer loop
         vertex 5.500000e+02 4.322059e+01 4.262981e+01
         vertex 6.500000e+02 4.537675e+01 4.007949e+01
         vertex 5.500000e+02 4.537675e+01 4.007949e+01
      endloop
   endfacet
   facet normal -0.000000e+00 8.428922e-01 5.380825e-01
      outer loop
         vertex 5.500000e+02 4.537675e+01 4.007949e+01
         vertex 6.500000e+02 4.537675e+01 4.007949e+01
         vertex 6.500000e+02 4.717375e+01 3.726454e+01
      endloop
   endfacet
   facet normal 0.000000e+00 8.428922e-01 5.380825e-01
      outer loop
         vertex 5.500000e+02 4.537675e+01 4.007949e+01
         vertex 6.500000e+02 4.717375e+01 3.726454e+01
         vertex 5.500000e+02 4.717375e+01 3.726454e+01
      endloop
   endfacet
   facet normal -0.000000e+00 9.070910e-01 4.209346e-01
      outer loop
         vertex 5.500000e+02 4.717375e+01 3.726454e+01
         vertex 6.500000e+02 4.717375e+01 3.726454e+01
         vertex 6.500000e+02 4.857952e+01 3.423520e+01
      endloop
   endfacet
   facet normal 0.000000e+00 9.070910e-01 4.209346e-01
      outer loop
         vertex 5.500000e+02 4.717375e+01 3.726454e+01
         vertex 6.500000e+02 4.857952e+01 3.423520e+01
         vertex 5.500000e+02 4.857952e+01 3.423520e+01
      endloop
   endfacet
   facet normal -0.000000e+00 9.551024e-01 2.962758e-01
      outer loop
         vertex 5.500000e+02 4.857952e+01 3.423520e+01
         vertex 6.500000e+02 4.857952e+01 3.423520e+01
         vertex 6.500000e+02 4.956897e+01 3.104550e+01
      endloop
   endfacet
   facet normal 0.000000e+00 9.551024e-01 2.962758e-01
      outer loop
         vertex 5.500000e+02 4.857952e+01 3.423520e+01
         vertex 6.500000e+02 4.956897e+01 3.104550e+01
         vertex 5.500000e+02 4.956897e+01 3.104550e+01
      endloop
   endfacet
   facet normal -0.000000e+00 9.860703e-01 1.663291e-01
      outer loop
         vertex 5.500000e+02 4.956897e+01 3.104550e+01
         vertex 6.500000e+02 4.956897e+01 3.104550e+01
         vertex 6.500000e+02 5.012445e+01 2.775239e+01
      endloop
   endfacet
   facet normal 0.000000e+00 9.860703e-01 1.663291e-01
      outer loop
         vertex 5.500000e+02 4.956897e+01 3.104550e+01
         vertex 6.500000e+02 5.012445e+01 2.775239e+01
         vertex 5.500000e+02 5.012445e+01 2.775239e+01
      endloop
   endfacet
   facet normal -0.000000e+00 9.994416e-01 3.341530e-02
      outer loop
         vertex 5.500000e+02 5.012445e+01 2.775239e+01
         vertex 6.500000e+02 5.012445e+01 2.775239e+01
         vertex 6.500000e+02 5.023604e+01 2.441463e+01
      endloop
   endfacet
   facet normal 0.000000e+00 9.994416e-01 3.341530e-02
      outer loop
         vertex 5.500000e+02 5.012445e+01 2.775239e+01
         vertex 6.500000e+02 5.023604e+01 2.441463e+01
         vertex 5.500000e+02 5.023604e+01 2.441463e+01
      endloop
   endfacet
   facet normal 0.000000e+00 9.949778e-01 -1.000959e-01
      outer loop
         vertex 5.500000e+02 5.023604e+01 2.441463e+01
         vertex 6.500000e+02 5.023604e+01 2.441463e+01
         vertex 6.500000e+02 4.990176e+01 2.109177e+01
      endloop
   endfacet
   facet normal 0.000000e+00 9.949778e-01 -1.000959e-01
      outer loop
         vertex 5.500000e+02 5.023604e+01 2.441463e+01
         vertex 6.500000e+02 4.990176e+01 2.109177e+01
         vertex 5.500000e+02 4.990176e+01 2.109177e+01
      endloop
   endfacet
   facet normal 0.000000e+00 9.727587e-01 -2.318200e-01
      outer loop
         vertex 5.500000e+02 4.990176e+01 2.109177e+01
         vertex 6.500000e+02 4.990176e+01 2.109177e+01
         vertex 6.500000e+02 4.912756e+01 1.784311e+01
      endloop
   endfacet
   facet normal 0.000000e+00 9.727587e-01 -2.318200e-01
      outer loop
         vertex 5.500000e+02 4.990176e+01 2.109177e+01
         vertex 6.500000e+02 4.912756e+01 1.784311e+01
         vertex 5.500000e+02 4.912756e+01 1.784311e+01
      endloop
   endfacet
   facet normal 0.000000e+00 9.331805e-01 -3.594080e-01
      outer loop
         vertex 5.500000e+02 4.912756e+01 1.784311e+01
         vertex 6.500000e+02 4.912756e+01 1.784311e+01
         vertex 6.500000e+02 4.792727e+01 1.472663e+01
      endloop
   endfacet
   facet normal 0.000000e+00 9.331805e-01 -3.594080e-01
      outer loop
         vertex 5.500000e+02 4.912756e+01 1.784311e+01
         vertex 6.500000e+02 4.792727e+01 1.472663e+01
         vertex 5.500000e+02 4.792727e+01 1.472663e+01
      endloop
   endfacet
   facet normal 0.000000e+00 8.769501e-01 -4.805815e-01
      outer loop
         vertex 5.500000e+02 4.792727e+01 1.472663e+01
         vertex 6.500000e+02 4.792727e+01 1.472663e+01
         vertex 6.500000e+02 4.632231e+01 1.179794e+01
      endloop
   endfacet
   facet normal 0.000000e+00 8.769501e-01 -4.805815e-01
      outer loop
         vertex 5.500000e+02 4.792727e+01 1.472663e+01
         vertex 6.500000e+02 4.632231e+01 1.179794e+01
         vertex 5.500000e+02 4.632231e+01 1.179794e+01
      endloop
   endfacet
   facet normal 0.000000e+00 8.050698e-01 -5.931801e-01
      outer loop
         vertex 5.500000e+02 4.632231e+01 1.179794e+01
         vertex 6.500000e+02 4.632231e+01 1.179794e+01
         vertex 6.500000e+02 4.434131e+01 9.109305e+00
      endloop
   endfacet
   facet normal 0.000000e+00 8.050698e-01 -5.931801e-01
      outer loop
         vertex 5.500000e+02 4.632231e+01 1.179794e+01
         vertex 6.500000e+02 4.434131e+01 9.109305e+00
         vertex 5.500000e+02 4.434131e+01 9.109305e+00
      endloop
   endfacet
   facet normal 0.000000e+00 7.188238e-01 -6.951923e-01
      outer loop
         vertex 5.500000e+02 4.434131e+01 9.109305e+00
         vertex 6.500000e+02 4.434131e+01 9.109305e+00
         vertex 6.500000e+02 4.201962e+01 6.708698e+00
      endloop
   endfacet
   facet normal 0.000000e+00 7.188238e-01 -6.951923e-01
      outer loop
         vertex 5.500000e+02 4.434131e+01 9.109305e+00
         vertex 6.500000e+02 4.201962e+01 6.708698e+00
         vertex 5.500000e+02 4.201962e+01 6.708698e+00
      endloop
   endfacet
   facet normal 0.000000e+00 6.197499e-01 -7.847994e-01
      outer loop
         vertex 5.500000e+02 4.201962e+01 6.708698e+00
         vertex 6.500000e+02 4.201962e+01 6.708698e+00
         vertex 6.500000e+02 3.939868e+01 4.638962e+00
      endloop
   endfacet
   facet normal 0.000000e+00 6.197499e-01 -7.847994e-01
      outer loop
         vertex 5.500000e+02 4.201962e+01 6.708698e+00
         vertex 6.500000e+02 3.939868e+01 4.638962e+00
         vertex 5.500000e+02 3.939868e+01 4.638962e+00
      endloop
   endfacet
   facet normal 0.000000e+00 5.096167e-01 -8.604015e-01
      outer loop
         vertex 5.500000e+02 3.939868e+01 4.638962e+00
         vertex 6.500000e+02 3.939868e+01 4.638962e+00
         vertex 6.500000e+02 3.652525e+01 2.937030e+00
      endloop
   endfacet
   facet normal 0.000000e+00 5.096167e-01 -8.604015e-01
      outer loop
         vertex 5.500000e+02 3.939868e+01 4.638962e+00
         vertex 6.500000e+02 3.652525e+01 2.937030e+00
         vertex 5.500000e+02 3.652525e+01 2.937030e+00
      endloop
   endfacet
   facet normal 0.000000e+00 3.903893e-01 -9.206499e-01
      outer loop
         vertex 5.500000e+02 3.652525e+01 2.937030e+00
         vertex 6.500000e+02 3.652525e+01 2.937030e+00
         vertex 6.500000e+02 3.345062e+01 1.633273e+00
      endloop
   endfacet
   facet normal 0.000000e+00 3.903893e-01 -9.206499e-01
      outer loop
         vertex 5.500000e+02 3.652525e+01 2.937030e+00
         vertex 6.500000e+02 3.345062e+01 1.633273e+00
         vertex 5.500000e+02 3.345062e+01 1.633273e+00
      endloop
   endfacet
   facet normal 0.000000e+00 2.641952e-01 -9.644692e-01
      outer loop
         vertex 5.500000e+02 3.345062e+01 1.633273e+00
         vertex 6.500000e+02 3.345062e+01 1.633273e+00
         vertex 6.500000e+02 3.022965e+01 7.509589e-01
      endloop
   endfacet
   facet normal 0.000000e+00 2.641952e-01 -9.644692e-01
      outer loop
         vertex 5.500000e+02 3.345062e+01 1.633273e+00
         vertex 6.500000e+02 3.022965e+01 7.509589e-01
         vertex 5.500000e+02 3.022965e+01 7.509589e-01
      endloop
   endfacet
   facet normal 0.000000e+00 1.332870e-01 -9.910775e-01
      outer loop
         vertex 5.500000e+02 3.022965e+01 7.509589e-01
         vertex 6.500000e+02 3.022965e+01 7.509589e-01
         vertex 6.500000e+02 2.691982e+01 3.058296e-01
      endloop
   endfacet
   facet normal 0.000000e+00 1.332870e-01 -9.910775e-01
      outer loop
         vertex 5.500000e+02 3.022965e+01 7.509589e-01
         vertex 6.500000e+02 2.691982e+01 3.058296e-01
         vertex 5.500000e+02 2.691982e+01 3.058296e-01
      endloop
   endfacet
   facet normal 0.000000e+00 3.341559e-02 -9.994415e-01
      outer loop
         vertex 5.500000e+02 2.691982e+01 3.058296e-01
         vertex 6.500000e+02 2.691982e+01 3.058296e-01
         vertex 5.500000e+02 2.525000e+01 2.500005e-01
      endloop
   endfacet
   facet normal 1.000000e+00 -0.000000e+00 0.000000e+00
      outer loop
         vertex 6.500000e+02 2.027035e+01 7.509589e-01
         vertex 6.500000e+02 2.358019e+01 3.058296e-01
         vertex 6.500000e+02 2.525000e+01 2.525000e+01
      endloop
   endfacet
   facet normal 1.000000e+00 0.000000e+00 0.000000e+00
      outer loop
         vertex 6.500000e+02 2.525000e+01 2.525000e+01
         vertex 6.500000e+02 2.358019e+01 3.058296e-01
         vertex 6.500000e+02 2.525000e+01 2.500005e-01
      endloop
   endfacet
   facet normal 1.000000e+00 0.000000e+00 0.000000e+00
      outer loop
         vertex 6.500000e+02 2.525000e+01 2.525000e+01
         vertex 6.500000e+02 2.525000e+01 2.500005e-01
         vertex 6.500000e+02 2.691982e+01 3.058296e-01
      endloop
   endfacet
   facet normal 1.000000e+00 -0.000000e+00 0.000000e+00
      outer loop
         vertex 6.500000e+02 1.110132e+01 4.638962e+00
         vertex 6.500000e+02 1.397475e+01 2.937030e+00
         vertex 6.500000e+02 2.525000e+01 2.525000e+01
      endloop
   endfacet
   facet normal 1.000000e+00 0.000000e+00 0.000000e+00
      outer loop
         vertex 6.500000e+02 2.525000e+01 2.525000e+01
         vertex 6.500000e+02 1.397475e+01 2.937030e+00
         vertex 6.500000e+02 1.704938e+01 1.633273e+00
      endloop
   endfacet
   facet normal 1.000000e+00 0.000000e+00 0.000000e+00
      outer loop
         vertex 6.500000e+02 2.525000e+01 2.525000e+01
         vertex 6.500000e+02 1.704938e+01 1.633273e+00
         vertex 6.500000e+02 2.027035e+01 7.509589e-01
      endloop
   endfacet
   facet normal 1.000000e+00 -0.000000e+00 0.000000e+00
      outer loop
         vertex 6.500000e+02 4.177693e+00 1.179794e+01
         vertex 6.500000e+02 6.158696e+00 9.109305e+00
         vertex 6.500000e+02 2.525000e+01 2.525000e+01
      endloop
   endfacet
   facet normal 1.000000e+00 0.000000e+00 0.000000e+00
      outer loop
         vertex 6.500000e+02 2.525000e+01 2.525000e+01
         vertex 6.500000e+02 6.158696e+00 9.109305e+00
         vertex 6.500000e+02 8.480383e+00 6.708698e+00
      endloop
   endfacet
   facet normal 1.000000e+00 0.000000e+00 0.000000e+00
      outer loop
         vertex 6.500000e+02 2.525000e+01 2.525000e+01
         vertex 6.500000e+02 8.480383e+00 6.708698e+00
         vertex 6.500000e+02 1.110132e+01 4.638962e+00
      endloop
   endfacet
   facet normal 1.000000e+00 -0.000000e+00 0.000000e+00
      outer loop
         vertex 6.500000e+02 5.982444e-01 2.109177e+01
         vertex 6.500000e+02 1.372438e+00 1.784311e+01
         vertex 6.500000e+02 2.525000e+01 2.525000e+01
      endloop
   endfacet
   facet normal 1.000000e+00 0.000000e+00 0.000000e+00
      outer loop
         vertex 6.500000e+02 2.525000e+01 2.525000e+01
         vertex 6.500000e+02 1.372438e+00 1.784311e+01
         vertex 6.500000e+02 2.572728e+00 1.472663e+01
      endloop
   endfacet
   facet normal 1.000000e+00 0.000000e+00 0.000000e+00
      outer loop
         vertex 6.500000e+02 2.525000e+01 2.525000e+01
         vertex 6.500000e+02 2.572728e+00 1.472663e+01
         vertex 6.500000e+02 4.177693e+00 1.179794e+01
      endloop
   endfacet
   facet normal 1.000000e+00 0.000000e+00 0.000000e+00
      outer loop
         vertex 6.500000e+02 9.310339e-01 3.104550e+01
         vertex 6.500000e+02 3.755558e-01 2.775239e+01
         vertex 6.500000e+02 2.525000e+01 2.525000e+01
      endloop
   endfacet
   facet normal 1.000000e+00 0.000000e+00 0.000000e+00
      outer loop
         vertex 6.500000e+02 2.525000e+01 2.525000e+01
         vertex 6.500000e+02 3.755558e-01 2.775239e+01
         vertex 6.500000e+02 2.639610e-01 2.441463e+01
      endloop
   endfacet
   facet normal 1.000000e+00 0.000000e+00 0.000000e+00
      outer loop
         vertex 6.500000e+02 2.525000e+01 2.525000e+01
         vertex 6.500000e+02 2.639610e-01 2.441463e+01
         vertex 6.500000e+02 5.982444e-01 2.109177e+01
      endloop
   endfacet
   facet normal 1.000000e+00 0.000000e+00 0.000000e+00
      outer loop
         vertex 6.500000e+02 5.123250e+00 4.007949e+01
         vertex 6.500000e+02 3.326252e+00 3.726454e+01
         vertex 6.500000e+02 2.525000e+01 2.525000e+01
      endloop
   endfacet
   facet normal 1.000000e+00 0.000000e+00 0.000000e+00
      outer loop
         vertex 6.500000e+02 2.525000e+01 2.525000e+01
         vertex 6.500000e+02 3.326252e+00 3.726454e+01
         vertex 6.500000e+02 1.920486e+00 3.423520e+01
      endloop
   endfacet
   facet normal 1.000000e+00 0.000000e+00 0.000000e+00
      outer loop
         vertex 6.500000e+02 2.525000e+01 2.525000e+01
         vertex 6.500000e+02 1.920486e+00 3.423520e+01
         vertex 6.500000e+02 9.310339e-01 3.104550e+01
      endloop
   endfacet
   facet normal 1.000000e+00 0.000000e+00 0.000000e+00
      outer loop
         vertex 6.500000e+02 1.250958e+01 4.676004e+01
         vertex 6.500000e+02 9.756254e+00 4.486999e+01
         vertex 6.500000e+02 2.525000e+01 2.525000e+01
      endloop
   endfacet
   facet normal 1.000000e+00 0.000000e+00 0.000000e+00
      outer loop
         vertex 6.500000e+02 2.525000e+01 2.525000e+01
         vertex 6.500000e+02 9.756254e+00 4.486999e+01
         vertex 6.500000e+02 7.279409e+00 4.262981e+01
      endloop
   endfacet
   facet normal 1.000000e+00 0.000000e+00 0.000000e+00
      outer loop
         vertex 6.500000e+02 2.525000e+01 2.525000e+01
         vertex 6.500000e+02 7.279409e+00 4.262981e+01
         vertex 6.500000e+02 5.123250e+00 4.007949e+01
      endloop
   endfacet
   facet normal 1.000000e+00 0.000000e+00 0.000000e+00
      outer loop
         vertex 6.500000e+02 2.191783e+01 5.002694e+01
         vertex 6.500000e+02 1.864512e+01 4.936173e+01
         vertex 6.500000e+02 2.525000e+01 2.525000e+01
      endloop
   endfacet
   facet normal 1.000000e+00 0.000000e+00 0.000000e+00
      outer loop
         vertex 6.500000e+02 2.525000e+01 2.525000e+01
         vertex 6.500000e+02 1.864512e+01 4.936173e+01
         vertex 6.500000e+02 1.549027e+01 4.826625e+01
      endloop
   endfacet
   facet normal 1.000000e+00 0.000000e+00 0.000000e+00
      outer loop
         vertex 6.500000e+02 2.525000e+01 2.525000e+01
         vertex 6.500000e+02 1.549027e+01 4.826625e+01
         vertex 6.500000e+02 1.250958e+01 4.676004e+01
      endloop
   endfacet
   facet normal 1.000000e+00 0.000000e+00 0.000000e+00
      outer loop
         vertex 6.500000e+02 3.185489e+01 4.936173e+01
         vertex 6.500000e+02 2.858217e+01 5.002694e+01
         vertex 6.500000e+02 2.525000e+01 2.525000e+01
      endloop
   endfacet
   facet normal 1.000000e+00 0.000000e+00 0.000000e+00
      outer loop
         vertex 6.500000e+02 2.525000e+01 2.525000e+01
         vertex 6.500000e+02 2.858217e+01 5.002694e+01
         vertex 6.500000e+02 2.525000e+01 5.025000e+01
      endloop
   endfacet
   facet normal 1.000000e+00 0.000000e+00 -0.000000e+00
      outer loop
         vertex 6.500000e+02 2.525000e+01 2.525000e+01
         vertex 6.500000e+02 2.525000e+01 5.025000e+01
         vertex 6.500000e+02 2.191783e+01 5.002694e+01
      endloop
   endfacet
   facet normal 1.000000e+00 0.000000e+00 0.000000e+00
      outer loop
         vertex 6.500000e+02 4.074375e+01 4.486999e+01
         vertex 6.500000e+02 3.799042e+01 4.676004e+01
         vertex 6.500000e+02 2.525000e+01 2.525000e+01
      endloop
   endfacet
   facet normal 1.000000e+00 0.000000e+00 0.000000e+00
      outer loop
         vertex 6.500000e+02 2.525000e+01 2.525000e+01
         vertex 6.500000e+02 3.799042e+01 4.676004e+01
         vertex 6.500000e+02 3.500973e+01 4.826625e+01
      endloop
   endfacet
   facet normal 1.000000e+00 0.000000e+00 0.000000e+00
      outer loop
         vertex 6.500000e+02 2.525000e+01 2.525000e+01
         vertex 6.500000e+02 3.500973e+01 4.826625e+01
         vertex 6.500000e+02 3.185489e+01 4.936173e+01
      endloop
   endfacet
   facet normal 1.000000e+00 0.000000e+00 0.000000e+00
      outer loop
         vertex 6.500000e+02 4.717375e+01 3.726454e+01
         vertex 6.500000e+02 4.537675e+01 4.007949e+01
         vertex 6.500000e+02 2.525000e+01 2.525000e+01
      endloop
   endfacet
   facet normal 1.000000e+00 0.000000e+00 0.000000e+00
      outer loop
         vertex 6.500000e+02 2.525000e+01 2.525000e+01
         vertex 6.500000e+02 4.537675e+01 4.007949e+01
         vertex 6.500000e+02 4.322059e+01 4.262981e+01
      endloop
   endfacet
   facet normal 1.000000e+00 0.000000e+00 0.000000e+00
      outer loop
         vertex 6.500000e+02 2.525000e+01 2.525000e+01
         vertex 6.500000e+02 4.322059e+01 4.262981e+01
         vertex 6.500000e+02 4.074375e+01 4.486999e+01
      endloop
   endfacet
   facet normal 1.000000e+00 0.000000e+00 0.000000e+00
      outer loop
         vertex 6.500000e+02 5.012445e+01 2.775239e+01
         vertex 6.500000e+02 4.956897e+01 3.104550e+01
         vertex 6.500000e+02 2.525000e+01 2.525000e+01
      endloop
   endfacet
   facet normal 1.000000e+00 0.000000e+00 0.000000e+00
      outer loop
         vertex 6.500000e+02 2.525000e+01 2.525000e+01
         vertex 6.500000e+02 4.956897e+01 3.104550e+01
         vertex 6.500000e+02 4.857952e+01 3.423520e+01
      endloop
   endfacet
   facet normal 1.000000e+00 0.000000e+00 0.000000e+00
      outer loop
         vertex 6.500000e+02 2.525000e+01 2.525000e+01
         vertex 6.500000e+02 4.857952e+01 3.423520e+01
         vertex 6.500000e+02 4.717375e+01 3.726454e+01
      endloop
   endfacet
   facet normal 1.000000e+00 0.000000e+00 -0.000000e+00
      outer loop
         vertex 6.500000e+02 4.912756e+01 1.784311e+01
         vertex 6.500000e+02 4.990176e+01 2.109177e+01
         vertex 6.500000e+02 2.525000e+01 2.525000e+01
      endloop
   endfacet
   facet normal 1.000000e+00 0.000000e+00 0.000000e+00
      outer loop
         vertex 6.500000e+02 2.525000e+01 2.525000e+01
         vertex 6.500000e+02 4.990176e+01 2.109177e+01
         vertex 6.500000e+02 5.023604e+01 2.441463e+01
      endloop
   endfacet
   facet normal 1.000000e+00 -0.000000e+00 0.000000e+00
      outer loop
         vertex 6.500000e+02 2.525000e+01 2.525000e+01
         vertex 6.500000e+02 5.023604e+01 2.441463e+01
         vertex 6.500000e+02 5.012445e+01 2.775239e+01
      endloop
   endfacet
   facet normal 1.000000e+00 0.000000e+00 -0.000000e+00
      outer loop
         vertex 6.500000e+02 4.434131e+01 9.109305e+00
         vertex 6.500000e+02 4.632231e+01 1.179794e+01
         vertex 6.500000e+02 2.525000e+01 2.525000e+01
      endloop
   endfacet
   facet normal 1.000000e+00 0.000000e+00 0.000000e+00
      outer loop
         vertex 6.500000e+02 2.525000e+01 2.525000e+01
         vertex 6.500000e+02 4.632231e+01 1.179794e+01
         vertex 6.500000e+02 4.792727e+01 1.472663e+01
      endloop
   endfacet
   facet normal 1.000000e+00 0.000000e+00 0.000000e+00
      outer loop
         vertex 6.500000e+02 2.525000e+01 2.525000e+01
         vertex 6.500000e+02 4.792727e+01 1.472663e+01
         vertex 6.500000e+02 4.912756e+01 1.784311e+01
      endloop
   endfacet
   facet normal 1.000000e+00 0.000000e+00 -0.000000e+00
      outer loop
         vertex 6.500000e+02 3.652525e+01 2.937030e+00
         vertex 6.500000e+02 3.939868e+01 4.638962e+00
         vertex 6.500000e+02 2.525000e+01 2.525000e+01
      endloop
   endfacet
   facet normal 1.000000e+00 0.000000e+00 0.000000e+00
      outer loop
         vertex 6.500000e+02 2.525000e+01 2.525000e+01
         vertex 6.500000e+02 3.939868e+01 4.638962e+00
         vertex 6.500000e+02 4.201962e+01 6.708698e+00
      endloop
   endfacet
   facet normal 1.000000e+00 0.000000e+00 0.000000e+00
      outer loop
         vertex 6.500000e+02 2.525000e+01 2.525000e+01
         vertex 6.500000e+02 4.201962e+01 6.708698e+00
         vertex 6.500000e+02 4.434131e+01 9.109305e+00
      endloop
   endfacet
   facet normal 1.000000e+00 0.000000e+00 -0.000000e+00
      outer loop
         vertex 6.500000e+02 2.691982e+01 3.058296e-01
         vertex 6.500000e+02 3.022965e+01 7.509589e-01
         vertex 6.500000e+02 2.525000e+01 2.525000e+01
      endloop
   endfacet
   facet normal 1.000000e+00 0.000000e+00 0.000000e+00
      outer loop
         vertex 6.500000e+02 2.525000e+01 2.525000e+01
         vertex 6.500000e+02 3.022965e+01 7.509589e-01
         vertex 6.500000e+02 3.345062e+01 1.633273e+00
      endloop
   endfacet
   facet normal 1.000000e+00 0.000000e+00 0.000000e+00
      outer loop
         vertex 6.500000e+02 2.525000e+01 2.525000e+01
         vertex 6.500000e+02 3.345062e+01 1.633273e+00
         vertex 6.500000e+02 3.652525e+01 2.937030e+00
      endloop
   endfacet
   facet normal -1.000000e+00 -0.000000e+00 0.000000e+00
      outer loop
         vertex 5.500000e+02 3.022965e+01 7.509589e-01
         vertex 5.500000e+02 2.691982e+01 3.058296e-01
         vertex 5.500000e+02 2.525000e+01 2.525000e+01
      endloop
   endfacet
   facet normal -1.000000e+00 0.000000e+00 0.000000e+00
      outer loop
         vertex 5.500000e+02 2.525000e+01 2.525000e+01
         vertex 5.500000e+02 2.691982e+01 3.058296e-01
         vertex 5.500000e+02 2.525000e+01 2.500005e-01
      endloop
   endfacet
   facet normal -1.000000e+00 0.000000e+00 -0.000000e+00
      outer loop
         vertex 5.500000e+02 2.525000e+01 2.525000e+01
         vertex 5.500000e+02 2.525000e+01 2.500005e-01
         vertex 5.500000e+02 2.358019e+01 3.058296e-01
      endloop
   endfacet
   facet normal -1.000000e+00 -0.000000e+00 0.000000e+00
      outer loop
         vertex 5.500000e+02 3.939868e+01 4.638962e+00
         vertex 5.500000e+02 3.652525e+01 2.937030e+00
         vertex 5.500000e+02 2.525000e+01 2.525000e+01
      endloop
   endfacet
   facet normal -1.000000e+00 0.000000e+00 0.000000e+00
      outer loop
         vertex 5.500000e+02 2.525000e+01 2.525000e+01
         vertex 5.500000e+02 3.652525e+01 2.937030e+00
         vertex 5.500000e+02 3.345062e+01 1.633273e+00
      endloop
   endfacet
   facet normal -1.000000e+00 0.000000e+00 0.000000e+00
      outer loop
         vertex 5.500000e+02 2.525000e+01 2.525000e+01
         vertex 5.500000e+02 3.345062e+01 1.633273e+00
         vertex 5.500000e+02 3.022965e+01 7.509589e-01
      endloop
   endfacet
   facet normal -1.000000e+00 -0.000000e+00 0.000000e+00
      outer loop
         vertex 5.500000e+02 4.632231e+01 1.179794e+01
         vertex 5.500000e+02 4.434131e+01 9.109305e+00
         vertex 5.500000e+02 2.525000e+01 2.525000e+01
      endloop
   endfacet
   facet normal -1.000000e+00 0.000000e+00 0.000000e+00
      outer loop
         vertex 5.500000e+02 2.525000e+01 2.525000e+01
         vertex 5.500000e+02 4.434131e+01 9.109305e+00
         vertex 5.500000e+02 4.201962e+01 6.708698e+00
      endloop
   endfacet
   facet normal -1.000000e+00 0.000000e+00 0.000000e+00
      outer loop
         vertex 5.500000e+02 2.525000e+01 2.525000e+01
         vertex 5.500000e+02 4.201962e+01 6.708698e+00
         vertex 5.500000e+02 3.939868e+01 4.638962e+00
      endloop
   endfacet
   facet normal -1.000000e+00 -0.000000e+00 0.000000e+00
      outer loop
         vertex 5.500000e+02 4.990176e+01 2.109177e+01
         vertex 5.500000e+02 4.912756e+01 1.784311e+01
         vertex 5.500000e+02 2.525000e+01 2.525000e+01
      endloop
   endfacet
   facet normal -1.000000e+00 0.000000e+00 0.000000e+00
      outer loop
         vertex 5.500000e+02 2.525000e+01 2.525000e+01
         vertex 5.500000e+02 4.912756e+01 1.784311e+01
         vertex 5.500000e+02 4.792727e+01 1.472663e+01
      endloop
   endfacet
   facet normal -1.000000e+00 0.000000e+00 0.000000e+00
      outer loop
         vertex 5.500000e+02 2.525000e+01 2.525000e+01
         vertex 5.500000e+02 4.792727e+01 1.472663e+01
         vertex 5.500000e+02 4.632231e+01 1.179794e+01
      endloop
   endfacet
   facet normal -1.000000e+00 0.000000e+00 -0.000000e+00
      outer loop
         vertex 5.500000e+02 4.956897e+01 3.104550e+01
         vertex 5.500000e+02 5.012445e+01 2.775239e+01
         vertex 5.500000e+02 2.525000e+01 2.525000e+01
      endloop
   endfacet
   facet normal -1.000000e+00 0.000000e+00 0.000000e+00
      outer loop
         vertex 5.500000e+02 2.525000e+01 2.525000e+01
         vertex 5.500000e+02 5.012445e+01 2.775239e+01
         vertex 5.500000e+02 5.023604e+01 2.441463e+01
      endloop
   endfacet
   facet normal -1.000000e+00 0.000000e+00 0.000000e+00
      outer loop
         vertex 5.500000e+02 2.525000e+01 2.525000e+01
         vertex 5.500000e+02 5.023604e+01 2.441463e+01
         vertex 5.500000e+02 4.990176e+01 2.109177e+01
      endloop
   endfacet
   facet normal -1.000000e+00 0.000000e+00 -0.000000e+00
      outer loop
         vertex 5.500000e+02 4.537675e+01 4.007949e+01
         vertex 5.500000e+02 4.717375e+01 3.726454e+01
         vertex 5.500000e+02 2.525000e+01 2.525000e+01
      endloop
   endfacet
   facet normal -1.000000e+00 0.000000e+00 0.000000e+00
      outer loop
         vertex 5.500000e+02 2.525000e+01 2.525000e+01
         vertex 5.500000e+02 4.717375e+01 3.726454e+01
         vertex 5.500000e+02 4.857952e+01 3.423520e+01
      endloop
   endfacet
   facet normal -1.000000e+00 0.000000e+00 0.000000e+00
      outer loop
         vertex 5.500000e+02 2.525000e+01 2.525000e+01
         vertex 5.500000e+02 4.857952e+01 3.423520e+01
         vertex 5.500000e+02 4.956897e+01 3.104550e+01
      endloop
   endfacet
   facet normal -1.000000e+00 0.000000e+00 -0.000000e+00
      outer loop
         vertex 5.500000e+02 3.799042e+01 4.676004e+01
         vertex 5.500000e+02 4.074375e+01 4.486999e+01
         vertex 5.500000e+02 2.525000e+01 2.525000e+01
      endloop
   endfacet
   facet normal -1.000000e+00 0.000000e+00 0.000000e+00
      outer loop
         vertex 5.500000e+02 2.525000e+01 2.525000e+01
         vertex 5.500000e+02 4.074375e+01 4.486999e+01
         vertex 5.500000e+02 4.322059e+01 4.262981e+01
      endloop
   endfacet
   facet normal -1.000000e+00 0.000000e+00 0.000000e+00
      outer loop
         vertex 5.500000e+02 2.525000e+01 2.525000e+01
         vertex 5.500000e+02 4.322059e+01 4.262981e+01
         vertex 5.500000e+02 4.537675e+01 4.007949e+01
      endloop
   endfacet
   facet normal -1.000000e+00 0.000000e+00 -0.000000e+00
      outer loop
         vertex 5.500000e+02 2.858217e+01 5.002694e+01
         vertex 5.500000e+02 3.185489e+01 4.936173e+01
         vertex 5.500000e+02 2.525000e+01 2.525000e+01
      endloop
   endfacet
   facet normal -1.000000e+00 0.000000e+00 0.000000e+00
      outer loop
         vertex 5.500000e+02 2.525000e+01 2.525000e+01
         vertex 5.500000e+02 3.185489e+01 4.936173e+01
         vertex 5.500000e+02 3.500973e+01 4.826625e+01
      endloop
   endfacet
   facet normal -1.000000e+00 0.000000e+00 0.000000e+00
      outer loop
         vertex 5.500000e+02 2.525000e+01 2.525000e+01
         vertex 5.500000e+02 3.500973e+01 4.826625e+01
         vertex 5.500000e+02 3.799042e+01 4.676004e+01
      endloop
   endfacet
   facet normal -1.000000e+00 0.000000e+00 0.000000e+00
      outer loop
         vertex 5.500000e+02 1.864512e+01 4.936173e+01
         vertex 5.500000e+02 2.191783e+01 5.002694e+01
         vertex 5.500000e+02 2.525000e+01 2.525000e+01
      endloop
   endfacet
   facet normal -1.000000e+00 0.000000e+00 0.000000e+00
      outer loop
         vertex 5.500000e+02 2.525000e+01 2.525000e+01
         vertex 5.500000e+02 2.191783e+01 5.002694e+01
         vertex 5.500000e+02 2.525000e+01 5.025000e+01
      endloop
   endfacet
   facet normal -1.000000e+00 0.000000e+00 0.000000e+00
      outer loop
         vertex 5.500000e+02 2.525000e+01 2.525000e+01
         vertex 5.500000e+02 2.525000e+01 5.025000e+01
         vertex 5.500000e+02 2.858217e+01 5.002694e+01
      endloop
   endfacet
   facet normal -1.000000e+00 0.000000e+00 0.000000e+00
      outer loop
         vertex 5.500000e+02 9.756254e+00 4.486999e+01
         vertex 5.500000e+02 1.250958e+01 4.676004e+01
         vertex 5.500000e+02 2.525000e+01 2.525000e+01
      endloop
   endfacet
   facet normal -1.000000e+00 0.000000e+00 0.000000e+00
      outer loop
         vertex 5.500000e+02 2.525000e+01 2.525000e+01
         vertex 5.500000e+02 1.250958e+01 4.676004e+01
         vertex 5.500000e+02 1.549027e+01 4.826625e+01
      endloop
   endfacet
   facet normal -1.000000e+00 0.000000e+00 0.000000e+00
      outer loop
         vertex 5.500000e+02 2.525000e+01 2.525000e+01
         vertex 5.500000e+02 1.549027e+01 4.826625e+01
         vertex 5.500000e+02 1.864512e+01 4.936173e+01
      endloop
   endfacet
   facet normal -1.000000e+00 0.000000e+00 0.000000e+00
      outer loop
         vertex 5.500000e+02 3.326252e+00 3.726454e+01
         vertex 5.500000e+02 5.123250e+00 4.007949e+01
         vertex 5.500000e+02 2.525000e+01 2.525000e+01
      endloop
   endfacet
   facet normal -1.000000e+00 0.000000e+00 0.000000e+00
      outer loop
         vertex 5.500000e+02 2.525000e+01 2.525000e+01
         vertex 5.500000e+02 5.123250e+00 4.007949e+01
         vertex 5.500000e+02 7.279409e+00 4.262981e+01
      endloop
   endfacet
   facet normal -1.000000e+00 0.000000e+00 0.000000e+00
      outer loop
         vertex 5.500000e+02 2.525000e+01 2.525000e+01
         vertex 5.500000e+02 7.279409e+00 4.262981e+01
         vertex 5.500000e+02 9.756254e+00 4.486999e+01
      endloop
   endfacet
   facet normal -1.000000e+00 0.000000e+00 0.000000e+00
      outer loop
         vertex 5.500000e+02 3.755558e-01 2.775239e+01
         vertex 5.500000e+02 9.310339e-01 3.104550e+01
         vertex 5.500000e+02 2.525000e+01 2.525000e+01
      endloop
   endfacet
   facet normal -1.000000e+00 0.000000e+00 0.000000e+00
      outer loop
         vertex 5.500000e+02 2.525000e+01 2.525000e+01
         vertex 5.500000e+02 9.310339e-01 3.104550e+01
         vertex 5.500000e+02 1.920486e+00 3.423520e+01
      endloop
   endfacet
   facet normal -1.000000e+00 0.000000e+00 0.000000e+00
      outer loop
         vertex 5.500000e+02 2.525000e+01 2.525000e+01
         vertex 5.500000e+02 1.920486e+00 3.423520e+01
         vertex 5.500000e+02 3.326252e+00 3.726454e+01
      endloop
   endfacet
   facet normal -1.000000e+00 0.000000e+00 0.000000e+00
      outer loop
         vertex 5.500000e+02 1.372438e+00 1.784311e+01
         vertex 5.500000e+02 5.982444e-01 2.109177e+01
         vertex 5.500000e+02 2.525000e+01 2.525000e+01
      endloop
   endfacet
   facet normal -1.000000e+00 0.000000e+00 0.000000e+00
      outer loop
         vertex 5.500000e+02 2.525000e+01 2.525000e+01
         vertex 5.500000e+02 5.982444e-01 2.109177e+01
         vertex 5.500000e+02 2.639610e-01 2.441463e+01
      endloop
   endfacet
   facet normal -1.000000e+00 -0.000000e+00 0.000000e+00
      outer loop
         vertex 5.500000e+02 2.525000e+01 2.525000e+01
         vertex 5.500000e+02 2.639610e-01 2.441463e+01
         vertex 5.500000e+02 3.755558e-01 2.775239e+01
      endloop
   endfacet
   facet normal -1.000000e+00 0.000000e+00 0.000000e+00
      outer loop
         vertex 5.500000e+02 6.158696e+00 9.109305e+00
         vertex 5.500000e+02 4.177693e+00 1.179794e+01
         vertex 5.500000e+02 2.525000e+01 2.525000e+01
      endloop
   endfacet
   facet normal -1.000000e+00 0.000000e+00 0.000000e+00
      outer loop
         vertex 5.500000e+02 2.525000e+01 2.525000e+01
         vertex 5.500000e+02 4.177693e+00 1.179794e+01
         vertex 5.500000e+02 2.572728e+00 1.472663e+01
      endloop
   endfacet
   facet normal -1.000000e+00 0.000000e+00 0.000000e+00
      outer loop
         vertex 5.500000e+02 2.525000e+01 2.525000e+01
         vertex 5.500000e+02 2.572728e+00 1.472663e+01
         vertex 5.500000e+02 1.372438e+00 1.784311e+01
      endloop
   endfacet
   facet normal -1.000000e+00 0.000000e+00 0.000000e+00
      outer loop
         vertex 5.500000e+02 1.397475e+01 2.937030e+00
         vertex 5.500000e+02 1.110132e+01 4.638962e+00
         vertex 5.500000e+02 2.525000e+01 2.525000e+01
      endloop
   endfacet
   facet normal -1.000000e+00 0.000000e+00 0.000000e+00
      outer loop
         vertex 5.500000e+02 2.525000e+01 2.525000e+01
         vertex 5.500000e+02 1.110132e+01 4.638962e+00
         vertex 5.500000e+02 8.480383e+00 6.708698e+00
      endloop
   endfacet
   facet normal -1.000000e+00 0.000000e+00 0.000000e+00
      outer loop
         vertex 5.500000e+02 2.525000e+01 2.525000e+01
         vertex 5.500000e+02 8.480383e+00 6.708698e+00
         vertex 5.500000e+02 6.158696e+00 9.109305e+00
      endloop
   endfacet
   facet normal -1.000000e+00 0.000000e+00 0.000000e+00
      outer loop
         vertex 5.500000e+02 2.358019e+01 3.058296e-01
         vertex 5.500000e+02 2.027035e+01 7.509589e-01
         vertex 5.500000e+02 2.525000e+01 2.525000e+01
      endloop
   endfacet
   facet normal -1.000000e+00 0.000000e+00 0.000000e+00
      outer loop
         vertex 5.500000e+02 2.525000e+01 2.525000e+01
         vertex 5.500000e+02 2.027035e+01 7.509589e-01
         vertex 5.500000e+02 1.704938e+01 1.633273e+00
      endloop
   endfacet
   facet normal -1.000000e+00 0.000000e+00 0.000000e+00
      outer loop
         vertex 5.500000e+02 2.525000e+01 2.525000e+01
         vertex 5.500000e+02 1.704938e+01 1.633273e+00
         vertex 5.500000e+02 1.397475e+01 2.937030e+00
      endloop
   endfacet
endsolid